#!OML:ASF H:\Terrain\Patient Classification 1\Takeo\Monday\TakeoMonday.ASF
:FULLY-SPECIFIED
:DEGREES
1623
root 10.7918 15.9541 -0.988849 6.44415 -7.88226 2.02059
lowerback 32.0768 0.520501 3.60292
upperback 14.5661 1.35544 -3.77668
thorax -0.50953 0.998956 -6.25999
lowerneck -12.7685 -7.9862 -7.82565
upperneck -14.102 -9.41915 8.03551
head -1.61943 -4.53377 3.71696
rclavicle 2.23633e-014 -1.39646e-014
rhumerus 17.2418 6.60579 -46.4655
rradius 88.9757
rwrist -6.42826
rhand -35.4521 28.405
rfingers 7.12502
rthumb -8.58112 -1.40065
lclavicle 2.23633e-014 -1.39646e-014
lhumerus -18.9162 -16.211 89.769
lradius 104.159
lwrist 20.5079
lhand -29.0323 -0.867426
lfingers 7.12502
lthumb -2.38288 29.099
rfemur -29.9195 -21.851 17.7922
rtibia 66.4383
rfoot -34.9103 -30.4111
rtoes -2.32737
lfemur -48.2014 -1.54621 -25.8559
ltibia 58.7732
lfoot -12.4192 2.94667
ltoes 8.16278
1624
root 10.8009 15.9904 -1.01579 6.36041 -8.43902 1.80619
lowerback 31.3515 0.553057 3.55366
upperback 14.5883 1.33223 -3.40547
thorax -0.335648 0.971073 -6.24715
lowerneck -13.2687 -7.90557 -7.87343
upperneck -13.485 -9.30059 7.72806
head -1.35261 -4.46105 3.58211
rclavicle -1.98785e-016 6.41081e-015
rhumerus 15.9809 8.09671 -46.8244
rradius 90.411
rwrist -6.16664
rhand -35.2235 28.833
rfingers 7.12502
rthumb -8.36049 -0.981584
lclavicle -1.98785e-016 6.41081e-015
lhumerus -19.1034 -16.108 89.9681
lradius 104.068
lwrist 20.5255
lhand -28.7975 -0.429299
lfingers 7.12502
lthumb -2.15618 29.5396
rfemur -29.4654 -21.3161 17.9861
rtibia 65.4731
rfoot -35.6977 -29.6664
rtoes -1.88414
lfemur -47.822 -1.17818 -25.5732
ltibia 58.2163
lfoot -12.3389 3.08003
ltoes 6.23331
1625
root 10.8018 16.0295 -1.04399 6.18375 -9.0811 1.42928
lowerback 31.085 0.579687 3.70403
upperback 14.493 1.39321 -3.32356
thorax -0.319624 0.997804 -6.25219
lowerneck -13.332 -7.69241 -7.89354
upperneck -13.2916 -9.00897 7.7221
head -1.29849 -4.31156 3.59193
rclavicle -2.40032e-014 3.25261e-014
rhumerus 14.6033 9.40993 -47.3881
rradius 91.8055
rwrist -5.681
rhand -34.5861 28.4839
rfingers 7.12502
rthumb -7.7453 -1.35421
lclavicle -2.40032e-014 3.25261e-014
lhumerus -19.2213 -16.1071 90.0564
lradius 104.027
lwrist 20.3626
lhand -28.2128 0.34015
lfingers 7.12502
lthumb -1.59147 30.314
rfemur -28.9503 -20.6974 18.3816
rtibia 64.5047
rfoot -35.7882 -29.623
rtoes -2.16711
lfemur -47.3191 -0.703607 -25.0787
ltibia 57.617
lfoot -12.1643 3.22035
ltoes 4.40567
1626
root 10.801 16.0735 -1.06236 5.6602 -9.8049 1.72625
lowerback 30.8997 0.728845 3.21288
upperback 14.5088 1.43565 -3.38081
thorax -0.235378 0.993924 -6.03588
lowerneck -13.4369 -7.55987 -8.10853
upperneck -13.0019 -8.79023 7.92279
head -1.17958 -4.19179 3.7003
rclavicle 2.53823e-014 1.45361e-015
rhumerus 13.2275 10.7044 -48.1002
rradius 93.1138
rwrist -5.00202
rhand -34.0151 28.3735
rfingers 7.12502
rthumb -7.19414 -1.48426
lclavicle 2.53823e-014 1.45361e-015
lhumerus -19.3065 -16.1707 90.1543
lradius 103.934
lwrist 20.2114
lhand -28.2328 0.276205
lfingers 7.12502
lthumb -1.61071 30.2499
rfemur -28.0993 -20.124 17.9085
rtibia 63.565
rfoot -35.215 -29.9285
rtoes -2.94422
lfemur -46.4075 -0.322374 -25.3253
ltibia 56.9726
lfoot -12.086 3.61862
ltoes 3.69776
1627
root 10.8078 16.1234 -1.07641 5.16803 -10.421 2.10766
lowerback 30.4882 0.764959 2.95363
upperback 14.5663 1.39319 -3.58391
thorax 0.00311735 0.973216 -6.08555
lowerneck -13.4072 -7.49532 -7.99547
upperneck -12.9376 -8.72159 7.93072
head -1.17241 -4.16341 3.6855
rclavicle 1.66855e-014 2.73329e-015
rhumerus 11.6814 11.8405 -49.2141
rradius 94.3112
rwrist -4.05314
rhand -34.0467 28.9602
rfingers 7.12502
rthumb -7.22467 -0.896437
lclavicle 1.66855e-014 2.73329e-015
lhumerus -19.4591 -16.3432 90.1316
lradius 104.043
lwrist 20.2255
lhand -28.6573 0.164959
lfingers 7.12502
lthumb -2.02072 30.1351
rfemur -27.3318 -19.6757 17.31
rtibia 62.7084
rfoot -34.5098 -29.9746
rtoes -3.57395
lfemur -45.5501 -0.0621345 -25.7127
ltibia 56.3293
lfoot -11.9152 4.13416
ltoes 2.23663
1628
root 10.8151 16.1656 -1.10133 5.07019 -10.9403 1.67633
lowerback 30.0235 0.629454 3.30937
upperback 14.4967 1.30009 -3.58756
thorax 0.129512 0.943386 -6.25451
lowerneck -13.3434 -7.34203 -7.79697
upperneck -13.1514 -8.54176 7.9074
head -1.27923 -4.08304 3.6613
rclavicle -1.55549e-014 1.78906e-015
rhumerus 10.3128 13.0662 -50.3395
rradius 95.3728
rwrist -3.26603
rhand -34.0587 29.695
rfingers 7.12502
rthumb -7.23622 -0.16123
lclavicle -1.55549e-014 1.78906e-015
lhumerus -19.6607 -16.3081 90.0663
lradius 104.226
lwrist 20.4041
lhand -28.863 0.383572
lfingers 7.12502
lthumb -2.21937 30.3518
rfemur -26.9376 -19.0722 17.7205
rtibia 61.9074
rfoot -34.0128 -29.8273
rtoes -3.70711
lfemur -45.1389 0.147805 -25.1345
ltibia 55.7527
lfoot -11.7355 4.37892
ltoes 2.06088
1629
root 10.8179 16.1917 -1.12714 4.86805 -11.4758 1.25905
lowerback 29.9131 0.530797 3.38012
upperback 14.2971 1.18915 -3.47041
thorax -0.0704697 0.870637 -6.13107
lowerneck -13.562 -7.1096 -7.7124
upperneck -12.9421 -8.23465 7.79595
head -1.20609 -3.92748 3.61056
rclavicle 3.46879e-014 -2.24627e-014
rhumerus 9.10368 14.5433 -51.2538
rradius 96.4051
rwrist -2.83942
rhand -33.6387 29.7598
rfingers 7.12502
rthumb -6.83082 -0.110054
lclavicle 3.46879e-014 -2.24627e-014
lhumerus -20.0446 -16.0098 90.1907
lradius 104.256
lwrist 20.5306
lhand -28.6255 0.123168
lfingers 7.12502
lthumb -1.99003 30.0936
rfemur -26.3326 -18.3725 18.0515
rtibia 61.1463
rfoot -34.0477 -29.2792
rtoes -2.63843
lfemur -44.6217 0.323338 -24.5021
ltibia 55.2839
lfoot -11.7704 4.50709
ltoes 3.34058
